<svg xmlns="http://www.w3.org/2000/svg" xmlns:xlink="http://www.w3.org/1999/xlink" version="1.1" x="0px" y="0px" fill="#F5A623" viewBox="0 0 100 125" style="enable-background:new 0 0 100 100;" xml:space="preserve"><g><path d="M50,11c-10.4,0-20.2,4.1-27.6,11.4S11,39.6,11,50s4.1,20.2,11.4,27.6S39.6,89,50,89s20.2-4.1,27.6-11.4S89,60.4,89,50   s-4.1-20.2-11.4-27.6S60.4,11,50,11z M71.9,71.9C66.1,77.8,58.3,81,50,81s-16.1-3.2-21.9-9.1C22.2,66.1,19,58.3,19,50   s3.2-16.1,9.1-21.9C33.9,22.2,41.7,19,50,19s16.1,3.2,21.9,9.1C77.8,33.9,81,41.7,81,50S77.8,66.1,71.9,71.9z"/><path d="M39.1,39.6h8.8c1.3,0,2.4,0.7,3,1.7H39.1V46h11.8c-0.7,1.1-1.8,1.7-3,1.7H36.6l17.1,18.2l3.2-3.4l-9.6-10.2l0.8,0   c3.7-0.1,6.8-2.7,7.8-6.3h5.1v-4.6h-5.1c-0.2-0.6-0.4-1.2-0.6-1.7h5.7V35H39.1V39.6z"/></g><text x="0" y="115" fill="#000000" font-size="5px" font-weight="bold" font-family="'Helvetica Neue', Helvetica, Arial-Unicode, Arial, Sans-serif">Created by Gagana</text><text x="0" y="120" fill="#000000" font-size="5px" font-weight="bold" font-family="'Helvetica Neue', Helvetica, Arial-Unicode, Arial, Sans-serif">from the Noun Project</text></svg>