<svg xmlns="http://www.w3.org/2000/svg" viewBox="0 0 64 80" x="0px" y="0px"><title>line style 1</title><g data-name="line style 1"><path d="M22,18a3,3,0,0,0,3,3v5a7,7,0,0,0,3.41,6A7,7,0,0,0,25,38v5a3,3,0,0,0,0,6H39a3,3,0,0,0,0-6V38a7,7,0,0,0-3.41-6A7,7,0,0,0,39,26V21a3,3,0,0,0,0-6H25A3,3,0,0,0,22,18ZM40,46a1,1,0,0,1-1,1H25a1,1,0,0,1,0-2H39A1,1,0,0,1,40,46Zm-3-8v5H27V38a5,5,0,0,1,10,0Zm0-12a5,5,0,0,1-10,0V21H37Zm3-8a1,1,0,0,1-1,1H25a1,1,0,0,1,0-2H39A1,1,0,0,1,40,18Z"/><path d="M34,26a1,1,0,0,0,1-1V24a1,1,0,0,0-2,0v1A1,1,0,0,0,34,26Z"/><path d="M34,41a1,1,0,0,0,1-1V39a1,1,0,0,0-2,0v1A1,1,0,0,0,34,41Z"/><path d="M55.33,13.06l-23-8a.94.94,0,0,0-.66,0l-23,8A1,1,0,0,0,8,14C8,55.4,30.9,58.86,31.87,59h.26C33.1,58.86,56,55.4,56,14A1,1,0,0,0,55.33,13.06ZM32,57c-2-.33-21.75-4.57-22-42.28L32,7.06l22,7.65C53.75,52.44,34,56.66,32,57Z"/><path d="M48.82,30.91l.18,0a1,1,0,0,0,1-.82,68.72,68.72,0,0,0,1-12.2,1,1,0,1,0-2,0,66.55,66.55,0,0,1-1,11.84A1,1,0,0,0,48.82,30.91Z"/></g></svg>